<?xml version="1.0" encoding="UTF-8" standalone="no"?>
<!-- Created with Inkscape (http://www.inkscape.org/) -->

<svg
   version="1.1"
   id="svg1"
   width="450"
   height="205"
   viewBox="0 0 450 205"
   sodipodi:docname="background_LEFT(900x410).svg"
   inkscape:version="1.3.2 (091e20e, 2023-11-25, custom)"
   xmlns:inkscape="http://www.inkscape.org/namespaces/inkscape"
   xmlns:sodipodi="http://sodipodi.sourceforge.net/DTD/sodipodi-0.dtd"
   xmlns="http://www.w3.org/2000/svg"
   xmlns:svg="http://www.w3.org/2000/svg">
  <defs
     id="defs1" />
  <sodipodi:namedview
     id="namedview1"
     pagecolor="#ffffff"
     bordercolor="#000000"
     borderopacity="0.25"
     inkscape:showpageshadow="2"
     inkscape:pageopacity="0.0"
     inkscape:pagecheckerboard="0"
     inkscape:deskcolor="#d1d1d1"
     inkscape:zoom="2.5222222"
     inkscape:cx="225"
     inkscape:cy="102.68722"
     inkscape:window-width="1920"
     inkscape:window-height="1046"
     inkscape:window-x="-11"
     inkscape:window-y="-11"
     inkscape:window-maximized="1"
     inkscape:current-layer="g1" />
  <g
     inkscape:groupmode="layer"
     inkscape:label="Image"
     id="g1">
    <path
       style="display:inline;fill:#ffe1a0;stroke:#ffe1a0;stroke-width:0.938062"
       d="M 5.3524229,64.215155 V 7.8222058 L 6.2664356,6.9837901 C 6.7691426,6.5226615 7.8456803,5.8331498 8.6587414,5.4515419 10.055924,4.7957783 16.400463,4.7577093 124.29202,4.7577093 H 238.447 l -0.21719,4.0638766 c -0.11945,2.2351321 -0.36927,4.5991191 -0.55513,5.2533041 -0.18587,0.654185 -0.44975,2.438326 -0.5864,3.964758 -0.13664,1.526431 -0.39573,3.221365 -0.57574,3.766519 -0.18001,0.545155 -0.62898,3.132159 -0.99771,5.748899 -0.66958,4.751792 -1.18705,7.226597 -1.82382,8.722467 -0.18565,0.436123 -0.50319,1.685022 -0.70565,2.77533 -1.32291,7.124353 -6.77074,18.069804 -12.52597,25.166379 -3.29728,4.065764 -11.35299,11.101496 -14.58974,12.742462 -0.92655,0.469737 -1.77384,0.984144 -1.88287,1.143127 -0.24823,0.361947 -5.75486,3.218868 -7.34389,3.810116 -0.64918,0.241549 -2.34003,0.89642 -3.75743,1.455264 -1.4174,0.558849 -3.29075,1.222236 -4.16299,1.4742 -0.87225,0.251961 -1.85353,0.561323 -2.18062,0.687478 -1.42664,0.550221 -9.20915,2.178011 -12.29075,2.570737 -1.85352,0.236212 -3.05762,0.539139 -2.67578,0.673172 0.38184,0.134028 -1.13875,0.275991 -3.37909,0.315472 -2.24035,0.03948 -5.28592,0.265492 -6.76794,0.502247 -3.54981,0.567083 -20.36996,0.567631 -23.87486,7.73e-4 -1.51341,-0.244768 -4.35739,-0.356955 -6.31995,-0.249304 -2.55088,0.139921 -3.1161,0.09823 -1.98238,-0.146208 1.22706,-0.264568 0.82336,-0.31184 -1.78414,-0.208915 -2.24059,0.08844 -3.03785,0.01812 -2.37885,-0.209827 0.71435,-0.247095 0.30561,-0.311796 -1.46352,-0.231661 -1.35009,0.06116 -2.37652,-0.01532 -2.28096,-0.169953 0.23683,-0.383198 -3.03054,-0.822826 -6.16742,-0.829832 -1.859,-0.0042 -2.3009,-0.09431 -1.5859,-0.323552 0.98419,-0.315559 0.98468,-0.31808 0.0701,-0.357323 -0.50659,-0.02174 -4.87774,-0.411435 -9.71365,-0.865995 -9.716923,-0.913361 -15.662695,-0.870026 -26.633985,0.194111 -3.488986,0.338404 -6.70044,0.63691 -7.136564,0.663343 -0.66171,0.04011 -0.628897,0.100194 0.198238,0.36303 0.741121,0.235502 0.441036,0.311308 -1.189427,0.300469 -3.380796,-0.02248 -14.737889,2.616197 -18.496043,4.297317 -0.68714,0.307376 -1.450776,0.558865 -1.696968,0.558865 -1.454503,0 -17.489774,7.522144 -19.089309,8.954795 -0.344263,0.30834 -0.764234,0.56062 -0.933268,0.56062 -0.428336,0 -8.681831,5.69549 -11.326262,7.81591 -1.199339,0.96169 -2.537445,2.03282 -2.973568,2.38031 -1.266366,1.00899 -4.160597,3.61689 -6.8392075,6.16259 l -2.4779736,2.35502 z"
       id="path1" />
    <path
       style="display:none;fill:#ffe1a0;stroke:#ffe1a0;stroke-width:0.938062"
       d="m 211.01845,199.9832 c -0.13032,-0.13031 -0.16226,-0.44251 -0.071,-0.69377 0.0913,-0.25125 0.33629,-2.41939 0.54445,-4.81806 0.3786,-4.36259 1.3609,-11.36876 1.75102,-12.48899 0.11391,-0.32709 0.31241,-1.57599 0.44112,-2.77533 0.36078,-3.36189 0.99143,-6.61791 1.99661,-10.30837 0.50485,-1.85353 1.03629,-4.06106 1.18098,-4.90564 0.14469,-0.84458 0.42928,-1.87046 0.63242,-2.27974 l 0.73871,-1.48828 c 0.20314,-0.40928 0.49062,-1.39055 0.63884,-2.18062 0.14821,-0.79006 0.38449,-1.43647 0.52505,-1.43647 0.14056,0 0.50141,-0.57985 0.80189,-1.28855 1.17254,-2.76552 1.79679,-4.072 2.0365,-4.26211 0.13747,-0.10903 0.5213,-0.73348 0.85294,-1.38767 1.31472,-2.59334 2.14945,-3.96383 3.0023,-4.92923 0.49064,-0.55539 0.89207,-1.1664 0.89207,-1.35781 0,-0.43874 5.16083,-6.19286 7.53304,-8.39903 2.82497,-2.62725 5.99124,-5.09669 8.13375,-6.34369 1.08701,-0.63267 2.53258,-1.52388 3.21239,-1.98046 3.27212,-2.19771 14.80778,-6.9839 17.99307,-7.46541 1.757,-0.2656 7.02324,-1.52783 7.5489,-1.80935 0.33581,-0.17985 2.0973,-0.4586 3.9144,-0.61945 1.8171,-0.16085 3.12078,-0.40576 2.89705,-0.54423 -0.22373,-0.13848 1.6393,-0.29823 4.14006,-0.35501 2.50077,-0.0568 5.35818,-0.28505 6.34981,-0.50728 2.5924,-0.58097 20.84763,-0.53898 22.63854,0.0521 0.93062,0.30713 2.94822,0.39836 5.81196,0.2628 2.41257,-0.1142 3.76205,-0.0913 2.99884,0.051 -0.97453,0.18162 0.44195,0.41589 4.7577,0.78686 3.37996,0.29053 6.41992,0.67493 6.75547,0.85422 0.33555,0.1793 3.4578,0.61659 6.93833,0.97178 14.42027,1.47157 20.4849,1.64992 29.12559,0.85649 11.42383,-1.04898 12.13884,-1.14274 11.28269,-1.47949 -0.51612,-0.20302 -0.11206,-0.29883 1.20629,-0.28603 1.09031,0.0106 2.43095,-0.0701 2.9792,-0.17919 8.37395,-1.66703 9.48435,-1.96891 17.43931,-4.74116 6.13155,-2.1368 12.91869,-5.24629 17.84141,-8.17394 7.90594,-4.701848 14.79282,-9.811403 20.85402,-15.472133 1.5479,-1.445635 3.28744,-3.028679 3.86563,-3.517875 l 1.05127,-0.889449 v 56.441257 56.44125 l -1.68502,1.14423 c -0.92676,0.62933 -1.74389,1.27623 -1.81584,1.43757 -0.15465,0.34677 -229.38516,0.41094 -229.73179,0.0643 z"
       id="path2" />
  </g>
</svg>
