<?xml version="1.0" encoding="UTF-8" standalone="no"?>
<!-- Created with Inkscape (http://www.inkscape.org/) -->

<svg
   version="1.1"
   id="svg1"
   width="350"
   height="205"
   viewBox="0 0 350 205"
   sodipodi:docname="background_LEFT(700x410).svg"
   inkscape:version="1.3.2 (091e20e, 2023-11-25, custom)"
   xmlns:inkscape="http://www.inkscape.org/namespaces/inkscape"
   xmlns:sodipodi="http://sodipodi.sourceforge.net/DTD/sodipodi-0.dtd"
   xmlns="http://www.w3.org/2000/svg"
   xmlns:svg="http://www.w3.org/2000/svg">
  <defs
     id="defs1" />
  <sodipodi:namedview
     id="namedview1"
     pagecolor="#ffffff"
     bordercolor="#000000"
     borderopacity="0.25"
     inkscape:showpageshadow="2"
     inkscape:pageopacity="0.0"
     inkscape:pagecheckerboard="0"
     inkscape:deskcolor="#d1d1d1"
     inkscape:zoom="2.2930463"
     inkscape:cx="147.62022"
     inkscape:cy="103.13791"
     inkscape:window-width="1920"
     inkscape:window-height="1046"
     inkscape:window-x="-11"
     inkscape:window-y="-11"
     inkscape:window-maximized="1"
     inkscape:current-layer="g1" />
  <g
     inkscape:groupmode="layer"
     inkscape:label="Image"
     id="g1">
    <path
       style="fill:#ffe1a0;fill-opacity:1;stroke:#ffe1a0;stroke-width:0.729604;stroke-opacity:1"
       d="M 4.6737414,120.05553 C 4.55891,119.9407 4.4704843,94.650503 4.4772397,63.855092 L 4.4895222,7.8634361 5.405554,6.8194466 c 0.5038176,-0.5741943 0.9160319,-0.9292798 0.9160319,-0.789079 0,0.1402008 0.2037365,-0.014453 0.4527479,-0.3436757 C 7.0233452,5.3574695 7.2314949,5.2020925 7.2368889,5.3414097 7.2422826,5.4807269 7.4647578,5.376652 7.7312777,5.1101322 8.1695622,4.6718475 16.698705,4.6255507 97.004406,4.6255507 c 87.296174,0 88.788544,0.00993 88.788544,0.5910426 0,0.3250734 0.12837,0.637298 0.28526,0.6938326 0.17068,0.061505 0.18833,1.279396 0.0439,3.0323054 l -0.24131,2.9295157 -0.10174,-2.6211457 -0.10174,-2.6211454 -0.23089,3.5462551 c -0.12699,1.950441 -0.36905,4.517622 -0.53791,5.704846 -0.67208,4.725366 -0.72508,5.407525 -0.44914,5.780345 0.15756,0.212881 0.19342,0.872739 0.0797,1.466351 l -0.2068,1.079295 -0.0844,-1.23348 c -0.0713,-1.041886 -0.12082,-0.922139 -0.31901,0.770925 -0.12905,1.102423 -0.39935,3.183921 -0.60067,4.625551 -0.20132,1.44163 -0.41802,3.106828 -0.48155,3.700441 -0.18973,1.772882 -0.47102,3.199761 -0.75988,3.854625 -0.14962,0.339207 -0.40598,1.588106 -0.56969,2.775331 -0.1637,1.187224 -0.46085,2.713656 -0.66032,3.39207 -0.19947,0.678414 -0.52394,1.927313 -0.72104,2.77533 -0.1971,0.848018 -0.44559,1.680617 -0.55221,1.850221 -0.10661,0.169603 -0.29719,0.789498 -0.4235,1.377544 -0.12631,0.588043 -0.35078,1.316568 -0.49882,1.618943 l -0.53832,1.099536 c -0.14804,0.302376 -0.37362,1.0309 -0.5013,1.618943 -0.12767,0.588046 -0.326,1.138558 -0.44074,1.22336 -0.34007,0.251358 -1.25576,2.3653 -1.25576,2.899027 0,0.271174 -0.13877,0.493043 -0.30837,0.493043 -0.1696,0 -0.30837,0.208455 -0.30837,0.463234 0,0.532564 -1.88812,4.264819 -2.23568,4.419291 -0.12721,0.05654 -0.23128,0.287814 -0.23128,0.513951 0,0.226137 -0.10955,0.457414 -0.24344,0.513951 -0.13388,0.05653 -0.7066,0.866005 -1.27268,1.798824 -1.67837,2.765669 -3.68235,5.183636 -7.14932,8.626248 -1.79793,1.785299 -3.46312,3.39023 -3.70044,3.566516 -4.24381,3.152433 -5.80245,4.178904 -8.27992,5.452886 -1.61948,0.832781 -3.07634,1.64372 -3.23746,1.802089 -0.16112,0.15837 -0.48707,0.287944 -0.72432,0.287944 -0.23726,0 -0.86864,0.195282 -1.40309,0.433957 -0.53444,0.238678 -1.80431,0.677748 -2.82193,0.97571 -1.01762,0.297963 -1.98899,0.641725 -2.15859,0.763916 -0.39086,0.281598 -3.0118,0.918721 -4.62555,1.124425 -0.67841,0.08648 -1.36531,0.281786 -1.52643,0.434019 -0.16113,0.15223 -0.78557,0.293201 -1.38767,0.313267 l -1.09471,0.03649 0.92511,0.235401 c 0.6255,0.159162 0.72537,0.24858 0.30837,0.276096 -0.33921,0.02238 -0.95067,0.130042 -1.35879,0.239246 -0.52028,0.139207 -0.67612,0.09187 -0.52145,-0.158398 0.26695,-0.431937 -1.38864,-0.503124 -1.83562,-0.07893 -0.30601,0.290417 -4.7931,0.576892 -10.31007,0.65824 -2.08704,0.03078 -3.52987,0.201203 -4.07059,0.480817 -0.46069,0.238231 -1.29549,0.414878 -1.85513,0.392552 l -1.01751,-0.04059 1.07929,-0.227182 c 0.59361,-0.124949 1.00991,-0.2525 0.92511,-0.283442 -0.0848,-0.03094 -3.13766,-0.257464 -6.78414,-0.503377 -6.49031,-0.437697 -11.876147,-1.033443 -14.955947,-1.654328 -0.848017,-0.170957 -1.994112,-0.401408 -2.546877,-0.512107 -0.552766,-0.110702 -1.177215,-0.06372 -1.387665,0.104399 -0.217192,0.173507 -0.649307,0.198189 -0.999378,0.05709 -0.566396,-0.228292 -0.553808,-0.253899 0.154185,-0.313677 1.128563,-0.09529 -4.326901,-0.978446 -9.251102,-1.497611 -3.578156,-0.377251 -12.52073,-0.389771 -15.881057,-0.02224 -1.356828,0.148406 -3.299559,0.358551 -4.31718,0.466996 -1.017622,0.108444 -2.127754,0.309499 -2.466961,0.446788 -0.339207,0.137286 -1.518722,0.40785 -2.621145,0.601251 -3.193357,0.560215 -3.835158,0.706417 -4.162996,0.948308 -0.169603,0.125143 -0.925933,0.321945 -1.680737,0.43734 -0.7548,0.115395 -1.518016,0.317072 -1.696035,0.44817 -0.178016,0.131097 -1.190959,0.506593 -2.250981,0.834431 -1.060022,0.32784 -1.927313,0.700172 -1.927313,0.827409 0,0.127236 -0.221869,0.231339 -0.493044,0.231339 -1.161099,0 -12.077368,5.491929 -12.407103,6.241959 -0.05653,0.128596 -0.225935,0.233812 -0.376447,0.233812 -0.239637,0 -2.962359,1.742618 -3.375388,2.160342 -0.0848,0.08577 -0.986784,0.77388 -2.004406,1.52915 -2.113259,1.56844 -2.007866,1.48598 -3.854625,3.0158 -1.93773,1.60519 -9.771688,9.47639 -11.258353,11.31189 -0.6768485,0.83566 -1.404092,1.69304 -1.6160965,1.90529 -0.2120044,0.21224 -0.3854625,0.53457 -0.3854625,0.71629 0,0.18172 -0.1040749,0.33079 -0.2312775,0.33129 -0.1272027,4.8e-4 -0.5088106,0.41638 -0.8480177,0.92422 -0.6381095,0.95533 -0.8301977,1.07141 -1.1852894,0.71632 z"
       id="path1" />
    <path
       style="display:none;fill:#ffe1a0;fill-opacity:1;stroke:#ffe1a0;stroke-width:0.729604;stroke-opacity:1"
       d="m 164.39545,195.89207 c 0.0936,-2.50165 0.31707,-4.93616 0.49651,-5.41002 0.18599,-0.49116 0.25269,-1.8169 0.15515,-3.0837 -0.0941,-1.22218 -0.0646,-1.87522 0.0655,-1.45121 0.22137,0.72127 0.25424,0.69148 0.51024,-0.46256 0.1505,-0.67841 0.26821,-2.75991 0.26159,-4.62555 -0.007,-1.86564 0.0757,-3.04515 0.18306,-2.62114 0.17071,0.67455 0.22433,0.60635 0.42891,-0.54563 0.12859,-0.7241 0.15668,-2.04238 0.0624,-2.92951 -0.11771,-1.10787 -0.0879,-1.37155 0.0953,-0.84205 0.21275,0.61492 0.27294,0.41578 0.29746,-0.984 0.0169,-0.96521 0.15417,-1.83121 0.30504,-1.92445 0.29131,-0.18005 0.4291,-0.80872 0.98461,-4.49243 0.19182,-1.27202 0.45761,-2.5903 0.59063,-2.92951 0.50748,-1.29404 1.23416,-3.95013 1.23416,-4.51096 0,-0.32204 0.12586,-0.82647 0.27969,-1.12098 0.15383,-0.29451 0.72443,-1.78436 1.268,-3.31079 0.54357,-1.52643 1.23407,-3.3304 1.53444,-4.00881 1.49344,-3.37308 3.57181,-7.50653 4.21487,-8.38251 0.39634,-0.5399 0.72062,-1.0754 0.72062,-1.19 0,-0.20289 3.80597,-5.49698 4.4547,-6.19647 2.70793,-2.91984 5.33173,-5.45277 6.95234,-6.71156 1.10388,-0.85744 2.07644,-1.63215 2.16124,-1.72159 0.60628,-0.63942 3.77039,-2.75534 4.77974,-3.19633 0.67841,-0.2964 1.50572,-0.69049 1.83845,-0.87575 1.94526,-1.0831 3.26906,-1.71946 4.63732,-2.22922 0.84802,-0.31594 1.68062,-0.6762 1.85022,-0.80057 0.1696,-0.12437 0.96428,-0.32104 1.76594,-0.43703 0.80166,-0.116 1.53838,-0.34166 1.63714,-0.50146 0.0988,-0.1598 0.44892,-0.29055 0.77811,-0.29055 0.3292,0 0.59854,-0.13014 0.59854,-0.28921 0,-0.15906 0.24285,-0.28567 0.53965,-0.28134 0.29681,0.004 1.30287,-0.15168 2.23569,-0.34667 0.93281,-0.19499 2.32048,-0.46614 3.0837,-0.60256 1.36338,-0.2437 1.36877,-0.24931 0.30837,-0.32081 l -1.0793,-0.0728 1.0793,-0.26886 c 0.72142,-0.1797 1.31566,-0.14858 1.79215,0.0939 0.54879,0.27923 0.84947,0.2774 1.30639,-0.008 0.3454,-0.2157 1.72974,-0.37066 3.31137,-0.37066 1.49481,0 2.84967,-0.12906 3.01079,-0.2868 0.16112,-0.15774 2.27571,-0.3312 4.69907,-0.38546 2.79364,-0.0626 4.48643,-0.2242 4.62555,-0.44167 0.14479,-0.22632 0.69149,-0.26568 1.6071,-0.11569 l 1.38766,0.22731 -1.38766,0.0964 c -0.78967,0.0549 0.14055,0.19837 2.15859,0.33303 3.44192,0.22969 7.85696,0.63693 11.48678,1.05954 1.22922,0.14312 1.77313,0.10014 1.77313,-0.14011 0,-0.1906 0.15361,-0.34655 0.34136,-0.34655 0.18775,0 0.26775,0.19184 0.17777,0.42632 -0.12132,0.31616 0.24865,0.47498 1.43176,0.61461 2.42048,0.28565 6.471,0.97759 6.99184,1.19439 0.52897,0.22018 1.72301,0.39098 5.85903,0.83811 1.61124,0.17418 3.97027,0.45681 5.24229,0.62807 2.95824,0.39828 11.0829,0.39885 13.79384,9.7e-4 1.14797,-0.16849 3.19735,-0.44131 4.55418,-0.60627 3.51564,-0.42742 4.86782,-0.64391 5.39648,-0.86399 0.2544,-0.10591 0.60132,-0.21222 0.77092,-0.23624 2.13549,-0.3025 3.44784,-0.57435 3.70044,-0.76653 0.16961,-0.12903 0.8974,-0.33175 1.61733,-0.45049 0.71993,-0.11873 1.38726,-0.34257 1.48296,-0.49741 0.0957,-0.15485 0.50453,-0.28154 0.90852,-0.28154 0.40399,0 0.82029,-0.13877 0.92511,-0.30837 0.10482,-0.16961 0.40427,-0.30837 0.66543,-0.30837 0.26117,0 0.9815,-0.2223 1.60074,-0.494 0.61925,-0.2717 1.40344,-0.61104 1.74264,-0.75409 0.33921,-0.14305 1.31058,-0.55278 2.15859,-0.9105 1.93341,-0.81559 3.03911,-1.34195 3.23789,-1.54136 0.0848,-0.0851 0.70925,-0.42442 1.38767,-0.75411 1.83013,-0.8894 7.88265,-4.6652 8.9136,-5.56066 0.49279,-0.42803 0.97847,-0.7784 1.07929,-0.77861 0.10082,-2.1e-4 0.59962,-0.3444 1.10843,-0.76487 0.50881,-0.42047 1.06657,-0.87129 1.23948,-1.00182 4.03156,-3.043654 11.42023,-10.552348 15.25388,-15.501658 1.37864,-1.779851 1.84718,-2.264278 1.88539,-1.949339 0.0169,0.139317 0.1424,-0.09361 0.27887,-0.517621 0.13648,-0.424009 0.25922,24.735068 0.27277,55.909048 l 0.0246,56.67998 -1.24108,1.2165 c -0.68259,0.66907 -1.37423,1.2165 -1.53698,1.2165 -0.16276,0 -0.29592,0.13441 -0.29592,0.29869 0,0.16428 -0.19411,0.22421 -0.43136,0.13316 -0.23725,-0.091 -0.52297,-0.0173 -0.63494,0.16387 -0.14361,0.23237 -26.26339,0.32939 -88.67851,0.32939 h -88.47493 z"
       id="path2" />
  </g>
</svg>
